<svg width="71" height="71" viewBox="0 0 71 71" fill="none" xmlns="http://www.w3.org/2000/svg">
<g clip-path="url(#clip0_4001_142)">
<path fill-rule="evenodd" clip-rule="evenodd" d="M-1572 10C-1572 4.47715 -1567.52 0 -1562 0H338C343.523 0 348 4.47715 348 10V94.99C348 94.9955 347.995 95 347.99 95C347.985 95 347.98 94.9957 347.98 94.9903C347.45 81.6513 336.469 71 323 71H64.519C59.4554 71 55.2961 67.1673 53.8121 62.3261C47.5424 41.8723 28.5081 27 6 27H-1021C-1043.51 27 -1062.54 41.8723 -1068.81 62.3261C-1070.3 67.1673 -1074.46 71 -1079.52 71H-1547C-1560.47 71 -1571.45 81.6513 -1571.98 94.9903C-1571.98 94.9957 -1571.98 95 -1571.99 95C-1572 95 -1572 94.9955 -1572 94.99V10Z" fill="#7027E2"/>
</g>
<defs>
<clipPath id="clip0_4001_142">
<rect width="71" height="71" fill="white"/>
</clipPath>
</defs>
</svg>
