<svg width="85" height="151" viewBox="0 0 85 151" fill="none" xmlns="http://www.w3.org/2000/svg">
<g clip-path="url(#clip0_4025_137)">
<mask id="path-1-inside-1_4025_137" fill="white">
<path fill-rule="evenodd" clip-rule="evenodd" d="M10.2039 0C14.8557 0 18 5.34812 18 10V10V45C18 56.0457 26.9543 65 38 65H75C80.5228 65 85 69.4772 85 75V131C85 142.046 76.0457 151 65 151H-544C-555.046 151 -564 142.046 -564 131V20C-564 8.95431 -555.046 0 -544 0H10.2039Z"/>
</mask>
<path d="M19 45V10H17V45H19ZM38 64C27.5066 64 19 55.4934 19 45H17C17 56.598 26.402 66 38 66V64ZM75 64H38V66H75V64ZM84 75V131H86V75H84ZM84 131C84 141.493 75.4934 150 65 150V152C76.598 152 86 142.598 86 131H84ZM65 150H-544V152H65V150ZM-544 150C-554.493 150 -563 141.493 -563 131H-565C-565 142.598 -555.598 152 -544 152V150ZM-563 131V20H-565V131H-563ZM-563 20C-563 9.50659 -554.493 1 -544 1V-1C-555.598 -1 -565 8.40202 -565 20H-563ZM-544 1H10.2039V-1H-544V1ZM75 66C79.9706 66 84 70.0294 84 75H86C86 68.9249 81.0751 64 75 64V66ZM19 10C19 7.46844 18.1504 4.76506 16.6607 2.6751C15.1688 0.582205 12.9487 -1 10.2039 -1V1C12.1109 1 13.7888 2.09186 15.0321 3.83599C16.2774 5.58306 17 7.87969 17 10H19Z" fill="white" mask="url(#path-1-inside-1_4025_137)"/>
</g>
<defs>
<clipPath id="clip0_4025_137">
<rect width="85" height="151" fill="white"/>
</clipPath>
</defs>
</svg>
